{
  "accessors": [
    {
      "bufferView": 2,
      "componentType": 5126,
      "count": 52456,
      "max": [
        1.9894218444824219,
        0.83470064401626587,
        1.314909815788269
      ],
      "min": [
        -1.9903929233551025,
        -0.83470058441162109,
        0.23720744252204895
      ],
      "type": "VEC3"
    },
    {
      "bufferView": 2,
      "byteOffset": 629472,
      "componentType": 5126,
      "count": 52456,
      "max": [
        1,
        1,
        1
      ],
      "min": [
        -0.99998807907104492,
        -1,
        -1
      ],
      "type": "VEC3"
    },
    {
      "bufferView": 3,
      "componentType": 5126,
      "count": 52456,
      "max": [
        1,
        1,
        1,
        1
      ],
      "min": [
        -1,
        -1,
        -0.99999856948852539,
        -1
      ],
      "type": "VEC4"
    },
    {
      "bufferView": 1,
      "componentType": 5126,
      "count": 52456,
      "max": [
        0.98546510934829712,
        0.98485124111175537
      ],
      "min": [
        0.011408389545977116,
        0.0095942765474319458
      ],
      "type": "VEC2"
    },
    {
      "bufferView": 0,
      "componentType": 5125,
      "count": 267669,
      "max": [
        52455
      ],
      "min": [
        0
      ],
      "type": "SCALAR"
    },
    {
      "bufferView": 2,
      "byteOffset": 1258944,
      "componentType": 5126,
      "count": 65532,
      "max": [
        2.0561742782592773,
        0.8279377818107605,
        1.2362146377563477
      ],
      "min": [
        -2.0360608100891113,
        -0.82793784141540527,
        0.079499870538711548
      ],
      "type": "VEC3"
    },
    {
      "bufferView": 2,
      "byteOffset": 2045328,
      "componentType": 5126,
      "count": 65532,
      "max": [
        1,
        1,
        1
      ],
      "min": [
        -1,
        -1,
        -1
      ],
      "type": "VEC3"
    },
    {
      "bufferView": 3,
      "byteOffset": 839296,
      "componentType": 5126,
      "count": 65532,
      "max": [
        1,
        1,
        0.99999403953552246,
        1
      ],
      "min": [
        -1,
        -1,
        -1,
        -1
      ],
      "type": "VEC4"
    },
    {
      "bufferView": 1,
      "byteOffset": 419648,
      "componentType": 5126,
      "count": 65532,
      "max": [
        0.92920207977294922,
        0.98662358522415161
      ],
      "min": [
        0.011408337391912937,
        0.044332690536975861
      ],
      "type": "VEC2"
    },
    {
      "bufferView": 0,
      "byteOffset": 1070676,
      "componentType": 5125,
      "count": 310740,
      "max": [
        65531
      ],
      "min": [
        0
      ],
      "type": "SCALAR"
    },
    {
      "bufferView": 2,
      "byteOffset": 2831712,
      "componentType": 5126,
      "count": 29800,
      "max": [
        1.3682979345321655,
        0.77848935127258301,
        0.51438403129577637
      ],
      "min": [
        -1.2325315475463867,
        -0.73648929595947266,
        0.079499870538711548
      ],
      "type": "VEC3"
    },
    {
      "bufferView": 2,
      "byteOffset": 3189312,
      "componentType": 5126,
      "count": 29800,
      "max": [
        0.99976044893264771,
        1,
        0.99976295232772827
      ],
      "min": [
        -0.99976044893264771,
        -1,
        -0.99976301193237305
      ],
      "type": "VEC3"
    },
    {
      "bufferView": 3,
      "byteOffset": 1887808,
      "componentType": 5126,
      "count": 29800,
      "max": [
        0.98975777626037598,
        0.99976295232772827,
        0.68750309944152832,
        1
      ],
      "min": [
        -0.81599414348602295,
        -0.99976295232772827,
        -1,
        -1
      ],
      "type": "VEC4"
    },
    {
      "bufferView": 1,
      "byteOffset": 943904,
      "componentType": 5126,
      "count": 29800,
      "max": [
        0.92920207977294922,
        0.48309633135795593
      ],
      "min": [
        0.5663946270942688,
        0.044332690536975861
      ],
      "type": "VEC2"
    },
    {
      "bufferView": 0,
      "byteOffset": 2313636,
      "componentType": 5125,
      "count": 155916,
      "max": [
        29799
      ],
      "min": [
        0
      ],
      "type": "SCALAR"
    },
    {
      "bufferView": 2,
      "byteOffset": 3546912,
      "componentType": 5126,
      "count": 2544,
      "max": [
        1.7534630298614502,
        0.72800779342651367,
        1.2245645523071289
      ],
      "min": [
        -1.3215793371200562,
        -0.72800779342651367,
        0.59498304128646851
      ],
      "type": "VEC3"
    },
    {
      "bufferView": 2,
      "byteOffset": 3577440,
      "componentType": 5126,
      "count": 2544,
      "max": [
        0.99949556589126587,
        0.97363412380218506,
        0.9945371150970459
      ],
      "min": [
        -0.46573320031166077,
        -0.97363412380218506,
        -0.55932235717773438
      ],
      "type": "VEC3"
    },
    {
      "bufferView": 3,
      "byteOffset": 2364608,
      "componentType": 5126,
      "count": 2544,
      "max": [
        0.97126078605651855,
        0.82388204336166382,
        0.93696051836013794,
        1
      ],
      "min": [
        -0.9945371150970459,
        -0.99666839838027954,
        -0.97804397344589233,
        1
      ],
      "type": "VEC4"
    },
    {
      "bufferView": 1,
      "byteOffset": 1182304,
      "componentType": 5126,
      "count": 2544,
      "max": [
        0.98261117935180664,
        0.60702764987945557
      ],
      "min": [
        0.83288896083831787,
        0.46119379997253418
      ],
      "type": "VEC2"
    },
    {
      "bufferView": 0,
      "byteOffset": 2937300,
      "componentType": 5125,
      "count": 12384,
      "max": [
        2543
      ],
      "min": [
        0
      ],
      "type": "SCALAR"
    },
    {
      "bufferView": 2,
      "byteOffset": 3607968,
      "componentType": 5126,
      "count": 3678,
      "max": [
        1.839297890663147,
        0.655173659324646,
        0.55640649795532227
      ],
      "min": [
        -1.9418487548828125,
        -0.655173659324646,
        0.43273308873176575
      ],
      "type": "VEC3"
    },
    {
      "bufferView": 2,
      "byteOffset": 3652104,
      "componentType": 5126,
      "count": 3678,
      "max": [
        1,
        0.99813497066497803,
        0.99985557794570923
      ],
      "min": [
        -0.99821192026138306,
        -0.99813443422317505,
        -0.96565675735473633
      ],
      "type": "VEC3"
    },
    {
      "bufferView": 3,
      "byteOffset": 2405312,
      "componentType": 5126,
      "count": 3678,
      "max": [
        0.96561533212661743,
        0.99999982118606567,
        0.88053494691848755,
        1
      ],
      "min": [
        -0.99774140119552612,
        -0.99999982118606567,
        -0.85919427871704102,
        1
      ],
      "type": "VEC4"
    },
    {
      "bufferView": 1,
      "byteOffset": 1202656,
      "componentType": 5126,
      "count": 3678,
      "max": [
        0.77729427814483643,
        0.3317379355430603
      ],
      "min": [
        0.67393684387207031,
        0.21083152294158936
      ],
      "type": "VEC2"
    },
    {
      "bufferView": 0,
      "byteOffset": 2986836,
      "componentType": 5125,
      "count": 21216,
      "max": [
        3677
      ],
      "min": [
        0
      ],
      "type": "SCALAR"
    },
    {
      "bufferView": 2,
      "byteOffset": 3696240,
      "componentType": 5126,
      "count": 25356,
      "max": [
        2.0012972354888916,
        0.8253166675567627,
        0.98058015108108521
      ],
      "min": [
        -2.0022649765014648,
        -0.82531672716140747,
        -0.02242075651884079
      ],
      "type": "VEC3"
    },
    {
      "bufferView": 2,
      "byteOffset": 4000512,
      "componentType": 5126,
      "count": 25356,
      "max": [
        1,
        0.99999570846557617,
        1
      ],
      "min": [
        -1,
        -0.99999570846557617,
        -1
      ],
      "type": "VEC3"
    },
    {
      "bufferView": 3,
      "byteOffset": 2464160,
      "componentType": 5126,
      "count": 25356,
      "max": [
        0.9999997615814209,
        1,
        0.99538922309875488,
        1
      ],
      "min": [
        -0.99999994039535522,
        -1,
        -1,
        -1
      ],
      "type": "VEC4"
    },
    {
      "bufferView": 1,
      "byteOffset": 1232080,
      "componentType": 5126,
      "count": 25356,
      "max": [
        0.98374646902084351,
        0.44808253645896912
      ],
      "min": [
        0.065882027149200439,
        0.0059511661529541016
      ],
      "type": "VEC2"
    },
    {
      "bufferView": 0,
      "byteOffset": 3071700,
      "componentType": 5125,
      "count": 135552,
      "max": [
        25355
      ],
      "min": [
        0
      ],
      "type": "SCALAR"
    },
    {
      "bufferView": 2,
      "byteOffset": 4304784,
      "componentType": 5126,
      "count": 12895,
      "max": [
        0.54294711351394653,
        0.63334053754806519,
        1.2989383935928345
      ],
      "min": [
        -1.3215792179107666,
        -0.63334053754806519,
        0.42380630970001221
      ],
      "type": "VEC3"
    },
    {
      "bufferView": 2,
      "byteOffset": 4459524,
      "componentType": 5126,
      "count": 12895,
      "max": [
        0.9999992847442627,
        1,
        1
      ],
      "min": [
        -1,
        -1,
        -0.99998176097869873
      ],
      "type": "VEC3"
    },
    {
      "bufferView": 3,
      "byteOffset": 2869856,
      "componentType": 5126,
      "count": 12895,
      "max": [
        1,
        1,
        0.99995255470275879,
        1
      ],
      "min": [
        -1,
        -1,
        -1,
        -1
      ],
      "type": "VEC4"
    },
    {
      "bufferView": 1,
      "byteOffset": 1434928,
      "componentType": 5126,
      "count": 12895,
      "max": [
        0.79535835981369019,
        0.98289585113525391
      ],
      "min": [
        0.39516478776931763,
        0.5845029354095459
      ],
      "type": "VEC2"
    },
    {
      "bufferView": 0,
      "byteOffset": 3613908,
      "componentType": 5125,
      "count": 64032,
      "max": [
        12894
      ],
      "min": [
        0
      ],
      "type": "SCALAR"
    }
  ],
  "asset": {
    "extras": {
      "author": "Sergey Egelsky (https://sketchfab.com/egelsky)",
      "license": "CC-BY-4.0 (http://creativecommons.org/licenses/by/4.0/)",
      "source": "https://sketchfab.com/3d-models/porsche-356-6048744a250e44c9bc3081ca1825a907",
      "title": "Porsche 356"
    },
    "generator": "Sketchfab-4.67.0",
    "version": "2.0"
  },
  "bufferViews": [
    {
      "buffer": 0,
      "byteLength": 3870036,
      "byteOffset": 0,
      "name": "floatBufferViews",
      "target": 34963
    },
    {
      "buffer": 0,
      "byteLength": 1538088,
      "byteOffset": 3870036,
      "byteStride": 8,
      "name": "floatBufferViews",
      "target": 34962
    },
    {
      "buffer": 0,
      "byteLength": 4614264,
      "byteOffset": 5408124,
      "byteStride": 12,
      "name": "floatBufferViews",
      "target": 34962
    },
    {
      "buffer": 0,
      "byteLength": 3076176,
      "byteOffset": 10022388,
      "byteStride": 16,
      "name": "floatBufferViews",
      "target": 34962
    }
  ],
  "buffers": [
    {
      "byteLength": 13098564,
      "uri": "scene.bin"
    }
  ],
  "images": [
    {
      "uri": "textures/glass_baseColor.png"
    },
    {
      "uri": "textures/glass_metallicRoughness.png"
    },
    {
      "uri": "textures/Porsche356_baseColor.jpeg"
    },
    {
      "uri": "textures/Porsche356_metallicRoughness.png"
    },
    {
      "uri": "textures/Porsche356_normal.jpeg"
    }
  ],
  "materials": [
    {
      "doubleSided": false,
      "name": "Porsche356",
      "normalTexture": {
        "index": 4,
        "scale": 1,
        "texCoord": 0
      },
      "occlusionTexture": {
        "index": 3,
        "strength": 0.64000000000000001,
        "texCoord": 0
      },
      "pbrMetallicRoughness": {
        "baseColorFactor": [
          1,
          1,
          1,
          1
        ],
        "baseColorTexture": {
          "index": 2,
          "texCoord": 0
        },
        "metallicFactor": 1,
        "metallicRoughnessTexture": {
          "index": 3,
          "texCoord": 0
        },
        "roughnessFactor": 1
      }
    },
    {
      "alphaMode": "BLEND",
      "doubleSided": false,
      "name": "glass",
      "pbrMetallicRoughness": {
        "baseColorFactor": [
          1,
          1,
          1,
          0.45000000000000001
        ],
        "baseColorTexture": {
          "index": 0,
          "texCoord": 0
        },
        "metallicFactor": 1,
        "metallicRoughnessTexture": {
          "index": 1,
          "texCoord": 0
        },
        "roughnessFactor": 1
      }
    }
  ],
  "meshes": [
    {
      "name": "356C_Porsche356_0",
      "primitives": [
        {
          "attributes": {
            "NORMAL": 1,
            "POSITION": 0,
            "TANGENT": 2,
            "TEXCOORD_0": 3
          },
          "indices": 4,
          "material": 0,
          "mode": 4
        }
      ]
    },
    {
      "name": "chrome_Porsche356_0",
      "primitives": [
        {
          "attributes": {
            "NORMAL": 6,
            "POSITION": 5,
            "TANGENT": 7,
            "TEXCOORD_0": 8
          },
          "indices": 9,
          "material": 0,
          "mode": 4
        }
      ]
    },
    {
      "name": "chrome_Porsche356_0",
      "primitives": [
        {
          "attributes": {
            "NORMAL": 11,
            "POSITION": 10,
            "TANGENT": 12,
            "TEXCOORD_0": 13
          },
          "indices": 14,
          "material": 0,
          "mode": 4
        }
      ]
    },
    {
      "name": "glass_glass_0",
      "primitives": [
        {
          "attributes": {
            "NORMAL": 16,
            "POSITION": 15,
            "TANGENT": 17,
            "TEXCOORD_0": 18
          },
          "indices": 19,
          "material": 1,
          "mode": 4
        }
      ]
    },
    {
      "name": "glass_Porsche356_0",
      "primitives": [
        {
          "attributes": {
            "NORMAL": 21,
            "POSITION": 20,
            "TANGENT": 22,
            "TEXCOORD_0": 23
          },
          "indices": 24,
          "material": 0,
          "mode": 4
        }
      ]
    },
    {
      "name": "rubber_Porsche356_0",
      "primitives": [
        {
          "attributes": {
            "NORMAL": 26,
            "POSITION": 25,
            "TANGENT": 27,
            "TEXCOORD_0": 28
          },
          "indices": 29,
          "material": 0,
          "mode": 4
        }
      ]
    },
    {
      "name": "interior_Porsche356_0",
      "primitives": [
        {
          "attributes": {
            "NORMAL": 31,
            "POSITION": 30,
            "TANGENT": 32,
            "TEXCOORD_0": 33
          },
          "indices": 34,
          "material": 0,
          "mode": 4
        }
      ]
    }
  ],
  "nodes": [
    {
      "children": [
        1
      ],
      "name": "RootNode (gltf orientation matrix)",
      "rotation": [
        -0.70710678118654746,
        -0,
        -0,
        0.70710678118654757
      ]
    },
    {
      "children": [
        2
      ],
      "name": "RootNode (model correction matrix)"
    },
    {
      "children": [
        3
      ],
      "matrix": [
        1,
        0,
        0,
        0,
        0,
        0,
        1,
        0,
        0,
        -1,
        0,
        0,
        0,
        0,
        0,
        1
      ],
      "name": "d8332c313c274a4eb2adcded266c2162.fbx"
    },
    {
      "children": [
        4,
        7,
        11,
        15,
        18
      ],
      "name": "RootNode"
    },
    {
      "children": [
        5
      ],
      "matrix": [
        1,
        0,
        0,
        0,
        0,
        2.2204460492503131e-16,
        -1,
        0,
        0,
        1,
        2.2204460492503131e-16,
        0,
        0,
        0,
        0,
        1
      ],
      "name": "356C"
    },
    {
      "children": [
        6
      ],
      "matrix": [
        -1.3315805452146108e-07,
        -0.99999999999999112,
        -0,
        0,
        0.99999999999999112,
        -1.3315805452146108e-07,
        0,
        0,
        -0,
        0,
        1,
        0,
        0,
        0,
        0,
        1
      ],
      "name": ""
    },
    {
      "mesh": 0,
      "name": "356C_Porsche356_0"
    },
    {
      "children": [
        8
      ],
      "matrix": [
        1,
        0,
        0,
        0,
        0,
        2.2204460492503131e-16,
        -1,
        0,
        0,
        1,
        2.2204460492503131e-16,
        0,
        0,
        0,
        0,
        1
      ],
      "name": "chrome"
    },
    {
      "children": [
        9,
        10
      ],
      "matrix": [
        -1.3315805452146108e-07,
        -0.99999999999999112,
        -0,
        0,
        0.99999999999999112,
        -1.3315805452146108e-07,
        0,
        0,
        -0,
        0,
        1,
        0,
        0,
        0,
        0,
        1
      ],
      "name": ""
    },
    {
      "mesh": 1,
      "name": "chrome_Porsche356_0"
    },
    {
      "mesh": 2,
      "name": "chrome_Porsche356_0"
    },
    {
      "children": [
        12
      ],
      "matrix": [
        1,
        0,
        0,
        0,
        0,
        2.2204460492503131e-16,
        -1,
        0,
        0,
        1,
        2.2204460492503131e-16,
        0,
        0,
        0,
        0,
        1
      ],
      "name": "glass"
    },
    {
      "children": [
        13,
        14
      ],
      "matrix": [
        -1.3315805452146108e-07,
        -0.99999999999999112,
        -0,
        0,
        0.99999999999999112,
        -1.3315805452146108e-07,
        0,
        0,
        -0,
        0,
        1,
        0,
        0,
        0,
        0,
        1
      ],
      "name": ""
    },
    {
      "mesh": 3,
      "name": "glass_glass_0"
    },
    {
      "mesh": 4,
      "name": "glass_Porsche356_0"
    },
    {
      "children": [
        16
      ],
      "matrix": [
        1,
        0,
        0,
        0,
        0,
        2.2204460492503131e-16,
        -1,
        0,
        0,
        1,
        2.2204460492503131e-16,
        0,
        0,
        0,
        0,
        1
      ],
      "name": "rubber"
    },
    {
      "children": [
        17
      ],
      "matrix": [
        -1.3315805452146108e-07,
        -0.99999999999999112,
        -0,
        0,
        0.99999999999999112,
        -1.3315805452146108e-07,
        0,
        0,
        -0,
        0,
        1,
        0,
        0,
        0,
        0,
        1
      ],
      "name": ""
    },
    {
      "mesh": 5,
      "name": "rubber_Porsche356_0"
    },
    {
      "children": [
        19
      ],
      "matrix": [
        1,
        0,
        0,
        0,
        0,
        2.2204460492503131e-16,
        -1,
        0,
        0,
        1,
        2.2204460492503131e-16,
        0,
        0,
        0,
        0,
        1
      ],
      "name": "interior"
    },
    {
      "children": [
        20
      ],
      "matrix": [
        -1.3315805452146108e-07,
        -0.99999999999999112,
        -0,
        0,
        0.99999999999999112,
        -1.3315805452146108e-07,
        0,
        0,
        -0,
        0,
        1,
        0,
        0,
        0,
        0,
        1
      ],
      "name": ""
    },
    {
      "mesh": 6,
      "name": "interior_Porsche356_0"
    }
  ],
  "samplers": [
    {
      "magFilter": 9729,
      "minFilter": 9987,
      "wrapS": 10497,
      "wrapT": 10497
    }
  ],
  "scene": 0,
  "scenes": [
    {
      "name": "OSG_Scene",
      "nodes": [
        0
      ]
    }
  ],
  "textures": [
    {
      "sampler": 0,
      "source": 0
    },
    {
      "sampler": 0,
      "source": 1
    },
    {
      "sampler": 0,
      "source": 2
    },
    {
      "sampler": 0,
      "source": 3
    },
    {
      "sampler": 0,
      "source": 4
    }
  ]
}

